<svg width="15" height="17" viewBox="0 0 15 17" fill="none" xmlns="http://www.w3.org/2000/svg">
<path d="M8.58008 13.9116H4.81787V17H2.67285V13.9116H0.348145V12.1372H2.67285V10.5986H0.348145V8.83545H2.67285V0.648438H8.70361C10.4556 0.648438 11.8444 1.09391 12.8701 1.98486C13.8958 2.87581 14.4087 4.08122 14.4087 5.60107C14.4087 7.1958 13.9146 8.42741 12.9263 9.2959C11.9455 10.1569 10.5492 10.5911 8.7373 10.5986H4.81787V12.1372H8.58008V13.9116ZM4.81787 8.83545H8.70361C9.8641 8.83545 10.7476 8.56217 11.354 8.01562C11.9604 7.46908 12.2637 6.67171 12.2637 5.62354C12.2637 4.67269 11.9492 3.90527 11.3203 3.32129C10.6914 2.72982 9.84163 2.43034 8.771 2.42285H4.81787V8.83545Z" fill="#999999"/>
</svg>
